<?xml version="1.0" encoding="UTF-8" standalone="no"?>
<!DOCTYPE svg PUBLIC "-//W3C//DTD SVG 1.1//EN" "http://www.w3.org/Graphics/SVG/1.1/DTD/svg11.dtd">
<svg xmlns="http://www.w3.org/2000/svg" version="1.1" viewBox="0.00 0.00 486.00 228.00">
    <g stroke-width="2.00" fill="none" stroke-linecap="butt">
        <path stroke="#b382dd" vector-effect="non-scaling-stroke" d="M 438.10 65.69 C 436.64 73.81 434.99 82.18 434.43 90.52 Q 434.17 94.45 435.08 96.35 C 436.86 100.12 442.91 100.79 445.57 97.42 Q 446.76 95.92 447.02 92.77 C 448.02 80.54 451.34 68.66 451.93 56.43 Q 452.12 52.29 450.76 50.28 C 447.39 45.32 440.03 46.73 435.89 49.90 C 433.25 51.93 430.80 54.46 428.33 56.33 Q 415.90 65.74 403.71 75.46 C 396.86 80.91 405.33 90.42 411.09 85.87 Q 424.31 75.41 437.59 65.37 Q 438.24 64.88 438.10 65.69"/>
        <path stroke="#b382dd" vector-effect="non-scaling-stroke" d="M 112.06 133.17 C 93.42 126.70 62.94 110.61 56.34 89.78 Q 55.29 86.50 54.24 85.48 C 49.18 80.62 41.29 84.92 43.34 91.68 C 52.57 122.10 91.81 141.21 119.73 149.09 C 158.66 160.09 199.00 167.21 239.49 168.16 Q 296.17 169.48 349.75 152.03 Q 357.41 149.54 364.31 145.82 Q 382.16 136.21 400.55 123.04 C 408.47 117.36 420.80 107.71 421.98 97.76 C 422.72 91.54 415.99 87.61 411.43 91.77 C 410.13 92.96 409.68 94.74 409.10 96.40 C 406.93 102.58 398.66 108.49 393.53 112.27 Q 376.95 124.48 358.85 134.26 Q 352.31 137.79 345.14 140.11 C 284.58 159.64 221.30 159.08 159.50 145.70 C 143.49 142.23 126.88 138.31 112.06 133.17"/>
    </g>
    <path fill="#730fc3" d="M 438.10 65.69 Q 438.24 64.88 437.59 65.37 Q 424.31 75.41 411.09 85.87 C 405.33 90.42 396.86 80.91 403.71 75.46 Q 415.90 65.74 428.33 56.33 C 430.80 54.46 433.25 51.93 435.89 49.90 C 440.03 46.73 447.39 45.32 450.76 50.28 Q 452.12 52.29 451.93 56.43 C 451.34 68.66 448.02 80.54 447.02 92.77 Q 446.76 95.92 445.57 97.42 C 442.91 100.79 436.86 100.12 435.08 96.35 Q 434.17 94.45 434.43 90.52 C 434.99 82.18 436.64 73.81 438.10 65.69 Z"/>
    <path fill="#730fc3" d="M 112.06 133.17 C 126.88 138.31 143.49 142.23 159.50 145.70 C 221.30 159.08 284.58 159.64 345.14 140.11 Q 352.31 137.79 358.85 134.26 Q 376.95 124.48 393.53 112.27 C 398.66 108.49 406.93 102.58 409.10 96.40 C 409.68 94.74 410.13 92.96 411.43 91.77 C 415.99 87.61 422.72 91.54 421.98 97.76 C 420.80 107.71 408.47 117.36 400.55 123.04 Q 382.16 136.21 364.31 145.82 Q 357.41 149.54 349.75 152.03 Q 296.17 169.48 239.49 168.16 C 199.00 167.21 158.66 160.09 119.73 149.09 C 91.81 141.21 52.57 122.10 43.34 91.68 C 41.29 84.92 49.18 80.62 54.24 85.48 Q 55.29 86.50 56.34 89.78 C 62.94 110.61 93.42 126.70 112.06 133.17 Z"/>
</svg>
