<?xml version="1.0" encoding="UTF-8" standalone="no"?>
<!DOCTYPE svg PUBLIC "-//W3C//DTD SVG 1.1//EN" "http://www.w3.org/Graphics/SVG/1.1/DTD/svg11.dtd">
<svg xmlns="http://www.w3.org/2000/svg" version="1.1" viewBox="0.00 0.00 264.00 214.00">
<path fill="#730fc3" d="
  M 88.43 106.82
  C 128.43 118.29 166.68 136.82 199.14 162.68
  A 2.31 2.31 0.0 0 1 199.40 166.05
  L 198.91 166.59
  Q 196.81 168.87 194.37 166.97
  C 160.76 140.70 121.61 122.33 80.58 111.18
  C 76.58 110.09 76.30 105.47 79.75 103.46
  C 83.55 101.24 88.39 99.46 92.25 97.25
  Q 111.59 86.17 134.78 71.78
  Q 145.35 65.23 154.11 57.01
  Q 156.35 54.91 158.60 56.99
  L 159.13 57.49
  A 2.34 2.33 -45.9 0 1 159.18 60.87
  C 150.55 69.33 141.12 75.78 130.29 82.34
  C 116.58 90.64 102.68 99.10 88.39 106.32
  Q 87.78 106.63 88.43 106.82
  Z"
/>
</svg>
