<?xml version="1.0" encoding="UTF-8" standalone="no"?>
<!DOCTYPE svg PUBLIC "-//W3C//DTD SVG 1.1//EN" "http://www.w3.org/Graphics/SVG/1.1/DTD/svg11.dtd">
<svg xmlns="http://www.w3.org/2000/svg" version="1.1" viewBox="0.00 0.00 264.00 214.00">
<path stroke="#b987e1" stroke-width="2.00" fill="none" stroke-linecap="butt" vector-effect="non-scaling-stroke" d="
  M 164.82 110.40
  A 0.19 0.18 44.1 0 1 164.83 110.72
  Q 147.35 121.61 130.27 133.24
  C 118.55 141.21 107.87 150.68 99.58 162.25
  A 2.55 2.54 -50.7 0 0 99.91 165.59
  L 100.42 166.07
  Q 102.76 168.25 104.72 165.71
  Q 116.86 149.95 133.78 138.54
  Q 152.13 126.18 170.87 114.36
  C 175.95 111.16 174.14 107.77 169.63 105.49
  C 156.93 99.08 147.18 93.84 131.32 88.88
  Q 119.25 85.11 107.08 81.67
  C 102.35 80.33 98.32 79.88 93.49 79.49
  Q 91.79 79.35 91.80 77.65
  Q 91.81 77.42 91.28 76.72
  C 89.96 74.93 87.45 75.24 85.98 76.60
  Q 85.64 76.92 85.59 77.38
  C 84.77 85.00 92.01 85.77 97.69 86.38
  Q 101.75 86.82 104.72 87.65
  C 125.59 93.47 145.96 99.42 164.82 110.40"
/>
<path fill="#730fc3" d="
  M 164.82 110.40
  C 145.96 99.42 125.59 93.47 104.72 87.65
  Q 101.75 86.82 97.69 86.38
  C 92.01 85.77 84.77 85.00 85.59 77.38
  Q 85.64 76.92 85.98 76.60
  C 87.45 75.24 89.96 74.93 91.28 76.72
  Q 91.81 77.42 91.80 77.65
  Q 91.79 79.35 93.49 79.49
  C 98.32 79.88 102.35 80.33 107.08 81.67
  Q 119.25 85.11 131.32 88.88
  C 147.18 93.84 156.93 99.08 169.63 105.49
  C 174.14 107.77 175.95 111.16 170.87 114.36
  Q 152.13 126.18 133.78 138.54
  Q 116.86 149.95 104.72 165.71
  Q 102.76 168.25 100.42 166.07
  L 99.91 165.59
  A 2.55 2.54 -50.7 0 1 99.58 162.25
  C 107.87 150.68 118.55 141.21 130.27 133.24
  Q 147.35 121.61 164.83 110.72
  A 0.19 0.18 44.1 0 0 164.82 110.40
  Z"
/>
</svg>
