<?xml version="1.0" encoding="UTF-8" standalone="no"?>
<!DOCTYPE svg PUBLIC "-//W3C//DTD SVG 1.1//EN" "http://www.w3.org/Graphics/SVG/1.1/DTD/svg11.dtd">
<svg xmlns="http://www.w3.org/2000/svg" version="1.1" viewBox="0.00 0.00 152.00 152.00">
<g stroke-width="2.00" fill="none" stroke-linecap="butt">
<path stroke="#b987e1" vector-effect="non-scaling-stroke" d="
  M 113.81 100.57
  C 115.31 98.60 117.23 96.86 118.39 94.94
  C 131.89 72.78 118.29 49.85 96.04 42.44
  C 79.99 37.09 62.09 39.31 48.53 49.53
  C 30.14 63.40 29.27 87.58 46.37 102.49
  C 58.20 112.81 74.74 116.52 89.93 113.22
  A 2.29 2.23 48.7 0 1 91.21 113.32
  L 112.78 121.75
  A 1.54 1.54 0.0 0 0 114.87 120.21
  L 113.55 101.45
  Q 113.52 100.96 113.81 100.57"
/>
<path stroke="#b987e1" vector-effect="non-scaling-stroke" d="
  M 78.38 64.94
  C 68.28 55.54 54.89 70.80 63.90 80.11
  Q 70.98 87.42 78.07 94.57
  A 1.29 1.28 44.8 0 0 79.90 94.57
  Q 86.91 87.37 93.88 79.88
  C 101.54 71.64 92.75 58.18 82.48 62.92
  C 81.44 63.40 80.37 64.37 79.27 65.03
  A 0.74 0.74 0.0 0 1 78.38 64.94"
/>
</g>
<path fill="#730fc3" d="
  M 113.55 101.45
  L 114.87 120.21
  A 1.54 1.54 0.0 0 1 112.78 121.75
  L 91.21 113.32
  A 2.29 2.23 48.7 0 0 89.93 113.22
  C 74.74 116.52 58.20 112.81 46.37 102.49
  C 29.27 87.58 30.14 63.40 48.53 49.53
  C 62.09 39.31 79.99 37.09 96.04 42.44
  C 118.29 49.85 131.89 72.78 118.39 94.94
  C 117.23 96.86 115.31 98.60 113.81 100.57
  Q 113.52 100.96 113.55 101.45
  Z
  M 78.38 64.94
  C 68.28 55.54 54.89 70.80 63.90 80.11
  Q 70.98 87.42 78.07 94.57
  A 1.29 1.28 44.8 0 0 79.90 94.57
  Q 86.91 87.37 93.88 79.88
  C 101.54 71.64 92.75 58.18 82.48 62.92
  C 81.44 63.40 80.37 64.37 79.27 65.03
  A 0.74 0.74 0.0 0 1 78.38 64.94
  Z"
/>
</svg>
