<?xml version="1.0" encoding="UTF-8" standalone="no"?>
<!DOCTYPE svg PUBLIC "-//W3C//DTD SVG 1.1//EN" "http://www.w3.org/Graphics/SVG/1.1/DTD/svg11.dtd">
<svg xmlns="http://www.w3.org/2000/svg" version="1.1" viewBox="0.00 0.00 184.00 249.00">
<path stroke="#b987e1" stroke-width="2.00" fill="none" stroke-linecap="butt" vector-effect="non-scaling-stroke" d="
  M 134.21 122.85
  C 142.03 115.32 150.02 107.94 157.62 100.22
  Q 160.03 97.77 160.62 96.17
  C 161.91 92.69 160.30 88.25 157.02 86.46
  Q 155.62 85.69 151.80 85.11
  Q 136.12 82.75 120.30 80.59
  Q 119.80 80.52 119.57 80.06
  Q 111.94 64.83 104.23 49.63
  C 101.02 43.30 92.74 43.80 89.65 49.88
  Q 82.05 64.87 74.63 80.04
  Q 74.41 80.48 73.92 80.55
  Q 56.95 82.91 40.03 85.68
  Q 35.37 86.44 33.76 90.25
  C 32.03 94.34 33.74 97.54 36.91 100.59
  Q 48.57 111.77 60.09 123.13
  Q 60.45 123.48 60.36 123.98
  C 58.46 134.92 56.84 145.97 54.70 156.86
  C 53.69 162.02 56.85 167.12 62.15 167.17
  Q 64.76 167.20 69.79 164.50
  Q 83.16 157.33 96.66 150.32
  A 0.99 0.96 -44.4 0 1 97.57 150.32
  Q 111.35 157.55 125.13 164.93
  C 129.52 167.28 135.33 168.80 138.31 163.76
  Q 140.06 160.79 139.29 156.25
  Q 136.54 140.10 133.80 124.12
  A 1.44 1.41 63.4 0 1 134.21 122.85"
/>
<path fill="#730fc3" d="
  M 157.62 100.22
  C 150.02 107.94 142.03 115.32 134.21 122.85
  A 1.44 1.41 63.4 0 0 133.80 124.12
  Q 136.54 140.10 139.29 156.25
  Q 140.06 160.79 138.31 163.76
  C 135.33 168.80 129.52 167.28 125.13 164.93
  Q 111.35 157.55 97.57 150.32
  A 0.99 0.96 -44.4 0 0 96.66 150.32
  Q 83.16 157.33 69.79 164.50
  Q 64.76 167.20 62.15 167.17
  C 56.85 167.12 53.69 162.02 54.70 156.86
  C 56.84 145.97 58.46 134.92 60.36 123.98
  Q 60.45 123.48 60.09 123.13
  Q 48.57 111.77 36.91 100.59
  C 33.74 97.54 32.03 94.34 33.76 90.25
  Q 35.37 86.44 40.03 85.68
  Q 56.95 82.91 73.92 80.55
  Q 74.41 80.48 74.63 80.04
  Q 82.05 64.87 89.65 49.88
  C 92.74 43.80 101.02 43.30 104.23 49.63
  Q 111.94 64.83 119.57 80.06
  Q 119.80 80.52 120.30 80.59
  Q 136.12 82.75 151.80 85.11
  Q 155.62 85.69 157.02 86.46
  C 160.30 88.25 161.91 92.69 160.62 96.17
  Q 160.03 97.77 157.62 100.22
  Z"
/>
</svg>
